<svg xmlns="http://www.w3.org/2000/svg" viewBox="0 0 64 64">
  <g stroke="#14181f" stroke-width="2.4" stroke-linejoin="round">
    <!-- back gear -->
    <path d="M18 8 l3 2 3-2 1 4 4 1-1 4 3 3-3 2 1 4-4 1-1 4-3-2-3 2-1-4-4-1 1-4-3-3 3-2-1-4 4-1z" fill="#5d6d7e"/>
    <circle cx="22" cy="20" r="3.4" fill="#aab2bb"/>
  </g>
  <!-- handle -->
  <path d="M24 38 L9 53" stroke="#14181f" stroke-width="9" stroke-linecap="round"/>
  <path d="M24 38 L9 53" stroke="#29abe2" stroke-width="4.5" stroke-linecap="round"/>
  <path d="M22 40 l4 -4" stroke="#f15a24" stroke-width="4.5" stroke-linecap="round"/>
  <!-- lens -->
  <circle cx="40" cy="27" r="17" fill="#29abe2" stroke="#14181f" stroke-width="2"/>
  <g stroke="#14181f" stroke-width="1.6" stroke-linejoin="round">
    <circle cx="42" cy="33" r="8" fill="#2f3a45"/>
    <circle cx="42" cy="33" r="3" fill="#5d6d7e"/>
  </g>
  <path d="M30 24 l6 4 5 -7 6 6" fill="none" stroke="#1c2630" stroke-width="2.4" stroke-linecap="round" stroke-linejoin="round"/>
  <circle cx="40" cy="27" r="18.5" fill="none" stroke="#f7941e" stroke-width="3.4"/>
  <circle cx="40" cy="27" r="20.4" fill="none" stroke="#14181f" stroke-width="1.1"/>
  <circle cx="40" cy="27" r="16.6" fill="none" stroke="#14181f" stroke-width="1.1"/>
</svg>
